<mxfile host="app.diagrams.net" modified="2022-02-28T14:07:50.583Z" agent="5.0 (Macintosh; Intel Mac OS X 10_15_7) AppleWebKit/537.36 (KHTML, like Gecko) Chrome/98.0.4758.109 Safari/537.36" etag="XtAnSqF3ga15rBTjVt-_" version="16.5.6" type="github">
  <diagram id="ahTeSWvd6d3z_KSurXjD" name="Page-1">
    <mxGraphModel dx="1194" dy="973" grid="1" gridSize="10" guides="1" tooltips="1" connect="1" arrows="1" fold="1" page="1" pageScale="1" pageWidth="850" pageHeight="1100" math="0" shadow="0">
      <root>
        <mxCell id="0" />
        <mxCell id="1" parent="0" />
        <mxCell id="jsW5Lj-fcAA0XNfjMqnU-1" value="" style="shape=image;verticalLabelPosition=bottom;labelBackgroundColor=default;verticalAlign=top;aspect=fixed;imageAspect=0;image=https://reflectoring.io/images/posts/spring-hexagonal/hexagonal-architecture_hu6764515d7030d45af6f7f498c79e292b_50897_956x0_resize_box_3.png;" parent="1" vertex="1">
          <mxGeometry x="100" y="150" width="520" height="256" as="geometry" />
        </mxCell>
        <mxCell id="jsW5Lj-fcAA0XNfjMqnU-2" value="&lt;span style=&quot;background-color: rgb(255 , 255 , 0)&quot;&gt;&lt;font style=&quot;font-size: 20px&quot;&gt;Core&lt;/font&gt;&lt;/span&gt;" style="text;html=1;strokeColor=none;fillColor=none;align=center;verticalAlign=middle;whiteSpace=wrap;rounded=0;" parent="1" vertex="1">
          <mxGeometry x="325" y="263" width="60" height="30" as="geometry" />
        </mxCell>
        <mxCell id="jsW5Lj-fcAA0XNfjMqnU-3" value="&lt;span style=&quot;background-color: rgb(255 , 255 , 0)&quot;&gt;&lt;font style=&quot;font-size: 20px&quot;&gt;Use Case&lt;/font&gt;&lt;/span&gt;" style="text;html=1;strokeColor=none;fillColor=none;align=center;verticalAlign=middle;whiteSpace=wrap;rounded=0;" parent="1" vertex="1">
          <mxGeometry x="313" y="194" width="90" height="30" as="geometry" />
        </mxCell>
        <mxCell id="jsW5Lj-fcAA0XNfjMqnU-4" value="&lt;span style=&quot;background-color: rgb(255 , 255 , 0)&quot;&gt;&lt;font style=&quot;font-size: 20px&quot;&gt;Use Case&lt;/font&gt;&lt;/span&gt;" style="text;html=1;strokeColor=none;fillColor=none;align=center;verticalAlign=middle;whiteSpace=wrap;rounded=0;" parent="1" vertex="1">
          <mxGeometry x="310" y="335" width="90" height="30" as="geometry" />
        </mxCell>
        <mxCell id="jsW5Lj-fcAA0XNfjMqnU-5" value="&lt;span style=&quot;background-color: rgb(255 , 255 , 0)&quot;&gt;&lt;font style=&quot;font-size: 20px&quot;&gt;Out Port&lt;/font&gt;&lt;/span&gt;" style="text;html=1;strokeColor=none;fillColor=none;align=center;verticalAlign=middle;whiteSpace=wrap;rounded=0;rotation=60;" parent="1" vertex="1">
          <mxGeometry x="420" y="194" width="90" height="30" as="geometry" />
        </mxCell>
        <mxCell id="jsW5Lj-fcAA0XNfjMqnU-6" value="&lt;span style=&quot;background-color: rgb(255 , 255 , 0)&quot;&gt;&lt;font style=&quot;font-size: 20px&quot;&gt;Out Port&lt;/font&gt;&lt;/span&gt;" style="text;html=1;strokeColor=none;fillColor=none;align=center;verticalAlign=middle;whiteSpace=wrap;rounded=0;rotation=-240;" parent="1" vertex="1">
          <mxGeometry x="420" y="330" width="90" height="30" as="geometry" />
        </mxCell>
        <mxCell id="jsW5Lj-fcAA0XNfjMqnU-7" value="&lt;span style=&quot;background-color: rgb(255 , 255 , 0)&quot;&gt;&lt;font style=&quot;font-size: 20px&quot;&gt;In Port&lt;br&gt;&lt;/font&gt;&lt;/span&gt;" style="text;html=1;strokeColor=none;fillColor=none;align=center;verticalAlign=middle;whiteSpace=wrap;rounded=0;rotation=-120;" parent="1" vertex="1">
          <mxGeometry x="207" y="330" width="90" height="30" as="geometry" />
        </mxCell>
        <mxCell id="jsW5Lj-fcAA0XNfjMqnU-8" value="&lt;span style=&quot;background-color: rgb(255 , 255 , 0)&quot;&gt;&lt;font style=&quot;font-size: 20px&quot;&gt;In Port&lt;br&gt;&lt;/font&gt;&lt;/span&gt;" style="text;html=1;strokeColor=none;fillColor=none;align=center;verticalAlign=middle;whiteSpace=wrap;rounded=0;rotation=-60;" parent="1" vertex="1">
          <mxGeometry x="207" y="200" width="90" height="30" as="geometry" />
        </mxCell>
        <mxCell id="jsW5Lj-fcAA0XNfjMqnU-9" value="&lt;span style=&quot;background-color: rgb(255 , 255 , 0)&quot;&gt;&lt;font style=&quot;font-size: 20px&quot;&gt;Webapp&lt;/font&gt;&lt;/span&gt;" style="text;html=1;strokeColor=none;fillColor=none;align=center;verticalAlign=middle;whiteSpace=wrap;rounded=0;" parent="1" vertex="1">
          <mxGeometry x="100" y="180" width="100" height="30" as="geometry" />
        </mxCell>
        <mxCell id="jsW5Lj-fcAA0XNfjMqnU-10" value="&lt;span style=&quot;background-color: rgb(255 , 255 , 0)&quot;&gt;&lt;font style=&quot;font-size: 20px&quot;&gt;EventApp&lt;/font&gt;&lt;/span&gt;" style="text;html=1;strokeColor=none;fillColor=none;align=center;verticalAlign=middle;whiteSpace=wrap;rounded=0;" parent="1" vertex="1">
          <mxGeometry x="103" y="320" width="100" height="30" as="geometry" />
        </mxCell>
        <mxCell id="jsW5Lj-fcAA0XNfjMqnU-11" value="&lt;span style=&quot;font-size: 12px&quot;&gt;프론트 요청의 진입점&lt;/span&gt;" style="text;html=1;strokeColor=none;fillColor=none;align=center;verticalAlign=middle;whiteSpace=wrap;rounded=0;labelBackgroundColor=#FFFF00;fontSize=20;" parent="1" vertex="1">
          <mxGeometry x="97" y="200" width="110" height="30" as="geometry" />
        </mxCell>
        <mxCell id="jsW5Lj-fcAA0XNfjMqnU-12" value="&lt;font style=&quot;font-size: 12px&quot;&gt;메시지큐 이벤트 들의 진입점&lt;/font&gt;" style="text;html=1;strokeColor=none;fillColor=none;align=center;verticalAlign=middle;whiteSpace=wrap;rounded=0;labelBackgroundColor=#FFFF00;fontSize=20;" parent="1" vertex="1">
          <mxGeometry x="84" y="343" width="138" height="30" as="geometry" />
        </mxCell>
        <mxCell id="jsW5Lj-fcAA0XNfjMqnU-13" value="&lt;span style=&quot;font-size: 16px ; background-color: rgb(255 , 255 , 0)&quot;&gt;Persistence Adapter&lt;/span&gt;" style="text;html=1;strokeColor=none;fillColor=none;align=center;verticalAlign=middle;whiteSpace=wrap;rounded=0;" parent="1" vertex="1">
          <mxGeometry x="492" y="180" width="160" height="30" as="geometry" />
        </mxCell>
        <mxCell id="jsW5Lj-fcAA0XNfjMqnU-14" value="&lt;span style=&quot;background-color: rgb(255 , 255 , 0)&quot;&gt;&lt;font style=&quot;font-size: 20px&quot;&gt;Message Queue&lt;/font&gt;&lt;/span&gt;" style="text;html=1;strokeColor=none;fillColor=none;align=center;verticalAlign=middle;whiteSpace=wrap;rounded=0;" parent="1" vertex="1">
          <mxGeometry x="492" y="310" width="160" height="50" as="geometry" />
        </mxCell>
        <mxCell id="jsW5Lj-fcAA0XNfjMqnU-15" value="&lt;span style=&quot;font-size: 12px&quot;&gt;마이크로서비스들에 메시지 전달&lt;/span&gt;" style="text;html=1;strokeColor=none;fillColor=none;align=center;verticalAlign=middle;whiteSpace=wrap;rounded=0;labelBackgroundColor=#FFFF00;fontSize=20;" parent="1" vertex="1">
          <mxGeometry x="491" y="343" width="159" height="30" as="geometry" />
        </mxCell>
        <mxCell id="jsW5Lj-fcAA0XNfjMqnU-16" value="&lt;font style=&quot;font-size: 11px&quot;&gt;이 마이크로서비스의 바운디드컨텍스트 안에 있는 데이터 관리&lt;/font&gt;" style="text;html=1;strokeColor=none;fillColor=none;align=center;verticalAlign=middle;whiteSpace=wrap;rounded=0;labelBackgroundColor=#FFFF00;fontSize=20;" parent="1" vertex="1">
          <mxGeometry x="500" y="203" width="140" height="50" as="geometry" />
        </mxCell>
        <mxCell id="-9QSW1CWZEcChb0iwN7i-17" value="" style="rounded=1;whiteSpace=wrap;html=1;fillColor=none;strokeColor=#CC0000;strokeWidth=6;rotation=0;" vertex="1" parent="1">
          <mxGeometry x="490" y="160" width="160" height="250" as="geometry" />
        </mxCell>
        <mxCell id="-9QSW1CWZEcChb0iwN7i-19" value="&lt;font style=&quot;font-size: 20px&quot;&gt;모킹의 대상&lt;/font&gt;" style="text;html=1;strokeColor=#CC0000;fillColor=none;align=center;verticalAlign=middle;whiteSpace=wrap;rounded=0;strokeWidth=5;" vertex="1" parent="1">
          <mxGeometry x="515" y="90" width="110" height="30" as="geometry" />
        </mxCell>
        <mxCell id="-9QSW1CWZEcChb0iwN7i-20" value="" style="endArrow=classic;html=1;rounded=0;fontSize=20;entryX=0.5;entryY=0;entryDx=0;entryDy=0;exitX=0.5;exitY=1;exitDx=0;exitDy=0;strokeColor=#CC0000;strokeWidth=4;" edge="1" parent="1" source="-9QSW1CWZEcChb0iwN7i-19" target="-9QSW1CWZEcChb0iwN7i-17">
          <mxGeometry width="50" height="50" relative="1" as="geometry">
            <mxPoint x="442" y="100" as="sourcePoint" />
            <mxPoint x="492" y="50" as="targetPoint" />
          </mxGeometry>
        </mxCell>
      </root>
    </mxGraphModel>
  </diagram>
</mxfile>
